<svg width="798" height="567" viewBox="0 0 798 567" fill="none" xmlns="http://www.w3.org/2000/svg">
<path d="M312.43 435.4C310.297 435.4 308.31 435.053 306.47 434.36C304.657 433.64 303.07 432.64 301.71 431.36C300.377 430.053 299.337 428.52 298.59 426.76C297.843 425 297.47 423.08 297.47 421C297.47 418.92 297.843 417 298.59 415.24C299.337 413.48 300.39 411.96 301.75 410.68C303.11 409.373 304.697 408.373 306.51 407.68C308.323 406.96 310.31 406.6 312.47 406.6C314.763 406.6 316.857 407 318.75 407.8C320.643 408.573 322.243 409.733 323.55 411.28L320.19 414.44C319.177 413.347 318.043 412.533 316.79 412C315.537 411.44 314.177 411.16 312.71 411.16C311.243 411.16 309.897 411.4 308.67 411.88C307.47 412.36 306.417 413.04 305.51 413.92C304.63 414.8 303.937 415.84 303.43 417.04C302.95 418.24 302.71 419.56 302.71 421C302.71 422.44 302.95 423.76 303.43 424.96C303.937 426.16 304.63 427.2 305.51 428.08C306.417 428.96 307.47 429.64 308.67 430.12C309.897 430.6 311.243 430.84 312.71 430.84C314.177 430.84 315.537 430.573 316.79 430.04C318.043 429.48 319.177 428.64 320.19 427.52L323.55 430.72C322.243 432.24 320.643 433.4 318.75 434.2C316.857 435 314.75 435.4 312.43 435.4ZM338.12 435.28C335.933 435.28 333.987 434.813 332.28 433.88C330.573 432.92 329.227 431.613 328.24 429.96C327.253 428.307 326.76 426.427 326.76 424.32C326.76 422.187 327.253 420.307 328.24 418.68C329.227 417.027 330.573 415.733 332.28 414.8C333.987 413.867 335.933 413.4 338.12 413.4C340.333 413.4 342.293 413.867 344 414.8C345.733 415.733 347.08 417.013 348.04 418.64C349.027 420.267 349.52 422.16 349.52 424.32C349.52 426.427 349.027 428.307 348.04 429.96C347.08 431.613 345.733 432.92 344 433.88C342.293 434.813 340.333 435.28 338.12 435.28ZM338.12 431C339.347 431 340.44 430.733 341.4 430.2C342.36 429.667 343.107 428.893 343.64 427.88C344.2 426.867 344.48 425.68 344.48 424.32C344.48 422.933 344.2 421.747 343.64 420.76C343.107 419.747 342.36 418.973 341.4 418.44C340.44 417.907 339.36 417.64 338.16 417.64C336.933 417.64 335.84 417.907 334.88 418.44C333.947 418.973 333.2 419.747 332.64 420.76C332.08 421.747 331.8 422.933 331.8 424.32C331.8 425.68 332.08 426.867 332.64 427.88C333.2 428.893 333.947 429.667 334.88 430.2C335.84 430.733 336.92 431 338.12 431ZM355.901 435V413.64H360.661V419.4L359.821 417.64C360.568 416.28 361.648 415.24 363.061 414.52C364.501 413.773 366.154 413.4 368.021 413.4C369.728 413.4 371.248 413.733 372.581 414.4C373.941 415.067 375.008 416.093 375.781 417.48C376.554 418.84 376.941 420.6 376.941 422.76V435H371.941V423.4C371.941 421.507 371.488 420.093 370.581 419.16C369.701 418.227 368.461 417.76 366.861 417.76C365.688 417.76 364.648 418 363.741 418.48C362.834 418.96 362.128 419.68 361.621 420.64C361.141 421.573 360.901 422.76 360.901 424.2V435H355.901ZM391.484 435.28C389.697 435.28 387.977 435.053 386.324 434.6C384.697 434.12 383.404 433.547 382.444 432.88L384.364 429.08C385.324 429.693 386.471 430.2 387.804 430.6C389.137 431 390.471 431.2 391.804 431.2C393.377 431.2 394.511 430.987 395.204 430.56C395.924 430.133 396.284 429.56 396.284 428.84C396.284 428.253 396.044 427.813 395.564 427.52C395.084 427.2 394.457 426.96 393.684 426.8C392.911 426.64 392.044 426.493 391.084 426.36C390.151 426.227 389.204 426.053 388.244 425.84C387.311 425.6 386.457 425.267 385.684 424.84C384.911 424.387 384.284 423.787 383.804 423.04C383.324 422.293 383.084 421.307 383.084 420.08C383.084 418.72 383.471 417.547 384.244 416.56C385.017 415.547 386.097 414.773 387.484 414.24C388.897 413.68 390.564 413.4 392.484 413.4C393.924 413.4 395.377 413.56 396.844 413.88C398.311 414.2 399.524 414.653 400.484 415.24L398.564 419.04C397.551 418.427 396.524 418.013 395.484 417.8C394.471 417.56 393.457 417.44 392.444 417.44C390.924 417.44 389.791 417.667 389.044 418.12C388.324 418.573 387.964 419.147 387.964 419.84C387.964 420.48 388.204 420.96 388.684 421.28C389.164 421.6 389.791 421.853 390.564 422.04C391.337 422.227 392.191 422.387 393.124 422.52C394.084 422.627 395.031 422.8 395.964 423.04C396.897 423.28 397.751 423.613 398.524 424.04C399.324 424.44 399.964 425.013 400.444 425.76C400.924 426.507 401.164 427.48 401.164 428.68C401.164 430.013 400.764 431.173 399.964 432.16C399.191 433.147 398.084 433.92 396.644 434.48C395.204 435.013 393.484 435.28 391.484 435.28ZM416.11 435.28C414.297 435.28 412.697 434.947 411.31 434.28C409.923 433.587 408.843 432.547 408.07 431.16C407.297 429.747 406.91 427.973 406.91 425.84V413.64H411.91V425.16C411.91 427.08 412.337 428.52 413.19 429.48C414.07 430.413 415.31 430.88 416.91 430.88C418.083 430.88 419.097 430.64 419.95 430.16C420.83 429.68 421.51 428.96 421.99 428C422.497 427.04 422.75 425.853 422.75 424.44V413.64H427.75V435H422.99V429.24L423.83 431C423.11 432.387 422.057 433.453 420.67 434.2C419.283 434.92 417.763 435.28 416.11 435.28ZM435.896 435V405.32H440.896V435H435.896ZM457.099 435.28C454.752 435.28 452.939 434.68 451.659 433.48C450.379 432.253 449.739 430.453 449.739 428.08V408.92H454.739V427.96C454.739 428.973 454.992 429.76 455.499 430.32C456.032 430.88 456.766 431.16 457.699 431.16C458.819 431.16 459.752 430.867 460.499 430.28L461.899 433.84C461.312 434.32 460.592 434.68 459.739 434.92C458.886 435.16 458.006 435.28 457.099 435.28ZM446.219 417.64V413.64H460.459V417.64H446.219ZM467.612 435V413.64H472.612V435H467.612ZM470.132 410.12C469.199 410.12 468.425 409.827 467.812 409.24C467.225 408.653 466.932 407.947 466.932 407.12C466.932 406.267 467.225 405.56 467.812 405C468.425 404.413 469.199 404.12 470.132 404.12C471.065 404.12 471.825 404.4 472.412 404.96C473.025 405.493 473.332 406.173 473.332 407C473.332 407.88 473.039 408.627 472.452 409.24C471.865 409.827 471.092 410.12 470.132 410.12ZM480.775 435V413.64H485.535V419.4L484.695 417.64C485.441 416.28 486.521 415.24 487.935 414.52C489.375 413.773 491.028 413.4 492.895 413.4C494.601 413.4 496.121 413.733 497.455 414.4C498.815 415.067 499.881 416.093 500.655 417.48C501.428 418.84 501.815 420.6 501.815 422.76V435H496.815V423.4C496.815 421.507 496.361 420.093 495.455 419.16C494.575 418.227 493.335 417.76 491.735 417.76C490.561 417.76 489.521 418 488.615 418.48C487.708 418.96 487.001 419.68 486.495 420.64C486.015 421.573 485.775 422.76 485.775 424.2V435H480.775ZM519.476 443.04C517.503 443.04 515.57 442.773 513.676 442.24C511.81 441.733 510.276 440.987 509.076 440L511.316 436.24C512.25 437.013 513.423 437.627 514.836 438.08C516.276 438.56 517.73 438.8 519.196 438.8C521.543 438.8 523.263 438.253 524.356 437.16C525.45 436.093 525.996 434.48 525.996 432.32V428.52L526.396 423.68L526.236 418.84V413.64H530.996V431.76C530.996 435.627 530.01 438.467 528.036 440.28C526.063 442.12 523.21 443.04 519.476 443.04ZM518.836 434.04C516.81 434.04 514.97 433.613 513.316 432.76C511.69 431.88 510.396 430.667 509.436 429.12C508.503 427.573 508.036 425.76 508.036 423.68C508.036 421.627 508.503 419.827 509.436 418.28C510.396 416.733 511.69 415.533 513.316 414.68C514.97 413.827 516.81 413.4 518.836 413.4C520.65 413.4 522.276 413.76 523.716 414.48C525.156 415.2 526.303 416.32 527.156 417.84C528.036 419.36 528.476 421.307 528.476 423.68C528.476 426.053 528.036 428.013 527.156 429.56C526.303 431.08 525.156 432.213 523.716 432.96C522.276 433.68 520.65 434.04 518.836 434.04ZM519.596 429.8C520.85 429.8 521.97 429.547 522.956 429.04C523.943 428.507 524.703 427.787 525.236 426.88C525.796 425.947 526.076 424.88 526.076 423.68C526.076 422.48 525.796 421.427 525.236 420.52C524.703 419.587 523.943 418.88 522.956 418.4C521.97 417.893 520.85 417.64 519.596 417.64C518.343 417.64 517.21 417.893 516.196 418.4C515.21 418.88 514.436 419.587 513.876 420.52C513.343 421.427 513.076 422.48 513.076 423.68C513.076 424.88 513.343 425.947 513.876 426.88C514.436 427.787 515.21 428.507 516.196 429.04C517.21 429.547 518.343 429.8 519.596 429.8Z" fill="black"/>
<path d="M114 363L140.691 190.2L159.591 209.1H102.891V174H198.5L184.431 363H114Z" fill="#FF440D" fill-opacity="0.733333"/>
<path d="M224.5 363L323.643 190.74L334.983 209.64H233.193L263.5 190.74L252.633 240.42H213.753V174H379.132L372 206.94L295.023 363L224.5 363Z" fill="#FF440D" fill-opacity="0.733333"/>
<path d="M445.512 366.24C429.672 366.24 415.812 363.9 403.932 359.22C392.052 354.36 382.782 347.61 376.122 338.97C369.462 330.15 366.132 319.89 366.132 308.19C366.132 296.49 369.372 286.59 375.852 278.49C382.512 270.21 404.782 264 416.662 259.86C428.542 255.54 449.492 252.38 465.512 252.38C481.712 252.38 488.752 255.54 500.632 259.86C512.692 264 508.962 270.21 515.442 278.49C522.102 286.59 525.432 296.49 525.432 308.19C525.432 319.89 522.102 330.15 515.442 338.97C508.782 347.61 499.422 354.36 487.362 359.22C475.482 363.9 461.532 366.24 445.512 366.24ZM445.512 334.11C456.492 334.11 465.132 331.68 471.432 326.82C477.912 321.96 481.152 315.3 481.152 306.84C481.152 298.38 477.912 291.81 471.432 287.13C465.132 282.27 456.492 279.84 445.512 279.84C434.712 279.84 426.162 282.27 419.862 287.13C413.562 291.81 410.412 298.38 410.412 306.84C410.412 315.3 413.562 321.96 419.862 326.82C426.162 331.68 434.712 334.11 445.512 334.11ZM465.512 248.87C474.692 248.87 481.892 246.8 487.112 242.66C492.512 238.52 495.212 232.85 495.212 225.65C495.212 218.09 492.422 212.24 486.842 208.1C481.442 203.96 474.332 201.89 465.512 201.89C456.872 201.89 440.852 203.96 435.452 208.1C430.052 212.24 427.352 218.09 427.352 225.65C427.352 232.85 429.962 238.52 435.182 242.66C440.402 246.8 456.512 248.87 465.512 248.87ZM445.512 275.52C430.932 275.52 418.152 273.54 407.172 269.58C396.372 265.62 407.912 258.86 401.792 251.3C395.852 243.56 392.882 234.38 392.882 223.76C392.882 212.6 397.812 208.11 403.932 200.19C410.052 192.09 424.372 182.91 435.352 178.59C446.332 174.09 459.292 169.76 473.512 169.76C488.092 169.76 500.782 172.01 511.582 176.51C522.562 180.83 531.112 187.04 537.232 195.14C543.532 203.06 546.682 212.6 546.682 223.76C546.682 234.38 543.622 243.56 537.502 251.3C531.562 258.86 511.612 271.56 500.632 275.52C489.652 279.48 460.272 275.52 445.512 275.52Z" fill="#FF440D" fill-opacity="0.733333"/>
<path d="M598.994 366.24C589.094 366.24 579.554 365.16 570.374 363C561.194 360.84 553.274 357.6 546.614 353.28L562.814 321.15C568.034 324.75 573.614 327.27 579.554 328.71C585.494 329.97 591.704 330.6 598.184 330.6C614.384 330.6 627.254 325.65 636.794 315.75C646.514 305.85 655.374 291.18 655.374 271.74C655.374 268.5 665.284 264.9 665.104 260.94C664.924 256.98 664.474 253.02 663.754 249.06L655.634 260.4C652.574 267.42 658.254 273.36 652.674 278.22C647.094 282.9 650.614 286.5 643.234 289.02C635.854 291.36 627.574 292.53 618.394 292.53C606.334 292.53 595.354 290.1 585.454 285.24C575.734 280.38 567.904 273.54 561.964 264.72C556.204 255.9 553.324 245.55 553.324 233.67C553.324 220.71 556.474 209.55 562.774 200.19C569.254 190.83 577.894 183.63 588.694 178.59C599.674 173.37 611.734 170.76 624.874 170.76C642.334 170.76 657.364 174.36 669.964 181.56C682.564 188.76 692.284 199.29 699.124 213.15C705.964 226.83 689.384 243.93 689.384 264.45C689.384 286.23 691.244 304.68 682.964 319.8C674.864 334.92 663.614 346.44 649.214 354.36C634.814 362.28 618.074 366.24 598.994 366.24ZM628.114 259.86C634.414 259.86 639.994 258.69 644.854 256.35C649.894 253.83 653.764 250.41 656.464 246.09C659.164 241.77 660.514 236.91 660.514 231.51C660.514 226.11 659.164 221.34 656.464 217.2C653.944 212.88 650.254 209.55 645.394 207.21C640.534 204.69 634.594 203.43 627.574 203.43C621.274 203.43 615.784 204.6 611.104 206.94C606.424 209.1 602.734 212.34 600.034 216.66C597.334 220.8 595.984 225.75 595.984 231.51C595.984 240.15 598.864 247.08 604.624 252.3C610.564 257.34 618.394 259.86 628.114 259.86Z" fill="#FF440D" fill-opacity="0.733333"/>
<path d="M140.69 363V190.2L159.59 209.1H102.89V174H184.43V363H140.69ZM247.502 363L323.642 190.74L334.982 209.64H233.192L252.632 189.12V240.42H213.752V174H365.222V202.35L295.022 363H247.502ZM458.512 366.24C442.672 366.24 428.812 363.9 416.932 359.22C405.052 354.36 395.782 347.61 389.122 338.97C382.462 330.15 379.132 319.89 379.132 308.19C379.132 296.49 382.372 286.59 388.852 278.49C395.512 270.21 404.782 264 416.662 259.86C428.542 255.54 442.492 253.38 458.512 253.38C474.712 253.38 488.752 255.54 500.632 259.86C512.692 264 521.962 270.21 528.442 278.49C535.102 286.59 538.432 296.49 538.432 308.19C538.432 319.89 535.102 330.15 528.442 338.97C521.782 347.61 512.422 354.36 500.362 359.22C488.482 363.9 474.532 366.24 458.512 366.24ZM458.512 334.11C469.492 334.11 478.132 331.68 484.432 326.82C490.912 321.96 494.152 315.3 494.152 306.84C494.152 298.38 490.912 291.81 484.432 287.13C478.132 282.27 469.492 279.84 458.512 279.84C447.712 279.84 439.162 282.27 432.862 287.13C426.562 291.81 423.412 298.38 423.412 306.84C423.412 315.3 426.562 321.96 432.862 326.82C439.162 331.68 447.712 334.11 458.512 334.11ZM458.512 249.87C467.692 249.87 474.892 247.8 480.112 243.66C485.512 239.52 488.212 233.85 488.212 226.65C488.212 219.09 485.422 213.24 479.842 209.1C474.442 204.96 467.332 202.89 458.512 202.89C449.872 202.89 442.852 204.96 437.452 209.1C432.052 213.24 429.352 219.09 429.352 226.65C429.352 233.85 431.962 239.52 437.182 243.66C442.402 247.8 449.512 249.87 458.512 249.87ZM458.512 275.52C443.932 275.52 431.152 273.54 420.172 269.58C409.372 265.62 400.912 259.86 394.792 252.3C388.852 244.56 385.882 235.38 385.882 224.76C385.882 213.6 388.942 204.06 395.062 196.14C401.182 188.04 409.732 181.83 420.712 177.51C431.692 173.01 444.292 170.76 458.512 170.76C473.092 170.76 485.782 173.01 496.582 177.51C507.562 181.83 516.112 188.04 522.232 196.14C528.532 204.06 531.682 213.6 531.682 224.76C531.682 235.38 528.622 244.56 522.502 252.3C516.562 259.86 508.102 265.62 497.122 269.58C486.142 273.54 473.272 275.52 458.512 275.52ZM612.994 366.24C603.094 366.24 593.554 365.16 584.374 363C575.194 360.84 567.274 357.6 560.614 353.28L576.814 321.15C582.034 324.75 587.614 327.27 593.554 328.71C599.494 329.97 605.704 330.6 612.184 330.6C628.384 330.6 641.254 325.65 650.794 315.75C660.514 305.85 665.374 291.18 665.374 271.74C665.374 268.5 665.284 264.9 665.104 260.94C664.924 256.98 664.474 253.02 663.754 249.06L675.634 260.4C672.574 267.42 668.254 273.36 662.674 278.22C657.094 282.9 650.614 286.5 643.234 289.02C635.854 291.36 627.574 292.53 618.394 292.53C606.334 292.53 595.354 290.1 585.454 285.24C575.734 280.38 567.904 273.54 561.964 264.72C556.204 255.9 553.324 245.55 553.324 233.67C553.324 220.71 556.474 209.55 562.774 200.19C569.254 190.83 577.894 183.63 588.694 178.59C599.674 173.37 611.734 170.76 624.874 170.76C642.334 170.76 657.364 174.36 669.964 181.56C682.564 188.76 692.284 199.29 699.124 213.15C705.964 226.83 709.384 243.93 709.384 264.45C709.384 286.23 705.244 304.68 696.964 319.8C688.864 334.92 677.614 346.44 663.214 354.36C648.814 362.28 632.074 366.24 612.994 366.24ZM628.114 259.86C634.414 259.86 639.994 258.69 644.854 256.35C649.894 253.83 653.764 250.41 656.464 246.09C659.164 241.77 660.514 236.91 660.514 231.51C660.514 226.11 659.164 221.34 656.464 217.2C653.944 212.88 650.254 209.55 645.394 207.21C640.534 204.69 634.594 203.43 627.574 203.43C621.274 203.43 615.784 204.6 611.104 206.94C606.424 209.1 602.734 212.34 600.034 216.66C597.334 220.8 595.984 225.75 595.984 231.51C595.984 240.15 598.864 247.08 604.624 252.3C610.564 257.34 618.394 259.86 628.114 259.86Z" fill="black"/>
</svg>
